<?xml version="1.0" encoding="UTF-8" standalone="no"?>
<svg
   data-name="Layer 1"
   width="124.23756"
   height="100.31164"
   viewBox="0 0 124.23756 100.31164"
   version="1.1"
   id="svg1028"
   sodipodi:docname="es-bot.svg"
   inkscape:version="1.1.2 (b8e25be8, 2022-02-05)"
   xmlns:inkscape="http://www.inkscape.org/namespaces/inkscape"
   xmlns:sodipodi="http://sodipodi.sourceforge.net/DTD/sodipodi-0.dtd"
   xmlns="http://www.w3.org/2000/svg"
   xmlns:svg="http://www.w3.org/2000/svg">
  <defs
     id="defs1032" />
  <sodipodi:namedview
     id="namedview1030"
     pagecolor="#ffffff"
     bordercolor="#999999"
     borderopacity="1"
     inkscape:pageshadow="0"
     inkscape:pageopacity="0"
     inkscape:pagecheckerboard="true"
     showgrid="false"
     fit-margin-top="0"
     fit-margin-left="0"
     fit-margin-right="0"
     fit-margin-bottom="0"
     inkscape:zoom="5.316259"
     inkscape:cx="78.720769"
     inkscape:cy="54.925841"
     inkscape:window-width="1280"
     inkscape:window-height="800"
     inkscape:window-x="339"
     inkscape:window-y="1080"
     inkscape:window-maximized="0"
     inkscape:current-layer="g3703" />
  <g
     id="g2575"
     transform="translate(-421.69212,225.82528)">
    <g
       id="g3084"
       transform="translate(124)" />
    <g
       id="g3703">
      <path
         d="m 528.08187,-195.03807 c -0.43746,-0.0641 -0.88061,-0.105 -1.32405,-0.13414 a 48.98222,48.98222 0 0 1 0.97431,36.57714 c 0.44315,-0.0525 0.88061,-0.12246 1.31807,-0.20413 a 18.37443,18.37443 0 0 0 -0.96833,-36.23887 z"
         fill="#3f3d56"
         id="path2555"
         style="fill:#ffffff;fill-opacity:1" />
      <path
         d="m 540.42355,158.85679 c -0.44344,0.0292 -0.88659,0.07 -1.32405,0.13414 a 18.37448,18.37448 0 0 0 -0.96832,36.23887 c 0.43745,0.0817 0.87491,0.15166 1.31806,0.20413 a 48.98583,48.98583 0 0 1 0.97431,-36.57714 z"
         fill="#3f3d56"
         id="path2557"
         transform="translate(-101.55984,-354.029)"
         style="fill:#ffffff;fill-opacity:1" />
      <path
         id="path3307"
         style="fill:#ffffff;fill-opacity:1;stroke-width:1.5059;stroke-miterlimit:4;stroke-dasharray:none;paint-order:fill markers stroke"
         d="m 482.90797,-225.75667 a 50.155998,50.155998 0 0 0 -50.15625,50.15625 50.155998,50.155998 0 0 0 50.15625,50.15625 50.155998,50.155998 0 0 0 50.15625,-50.15625 50.155998,50.155998 0 0 0 -50.15625,-50.15625 z m 0,7.65625 a 42.5,42.5 0 0 1 42.5,42.5 42.5,42.5 0 0 1 -42.5,42.5 42.5,42.5 0 0 1 -42.5,-42.5 42.5,42.5 0 0 1 42.5,-42.5 z" />
      <g
         id="g2573"
         transform="translate(-116.24082,-454.11897)">
        <path
           d="M 791.22568,479.73667 A 6.06692,6.06692 0 0 0 787.726,478.611 h -22.94022 a 6.02524,6.02524 0 1 0 0,12.05048 H 787.726 a 5.95878,5.95878 0 0 0 1.21895,-0.1225 6.61944,6.61944 0 0 0 1.16655,-0.36747 6.02282,6.02282 0 0 0 1.11415,-10.43479 z"
           transform="translate(-165.50985,-212.6649)"
           fill="#3f3d56"
           id="path2565"
           style="fill:#ffffff;fill-opacity:1" />
        <circle
           cx="600.80328"
           cy="271.97098"
           r="3.0589499"
           fill="#f1f1f1"
           id="circle2567" />
        <circle
           cx="610.74487"
           cy="271.97098"
           r="3.0589499"
           fill="#f1f1f1"
           id="circle2569" />
        <circle
           cx="620.68646"
           cy="271.97098"
           r="3.0589499"
           fill="#6c63ff"
           id="circle2571" />
      </g>
    </g>
    <g
       id="g3735"
       transform="translate(151.5606,0.93845573)">
      <path
         d="m 797.15156,371.65583 c -0.43746,-0.0641 -0.88061,-0.105 -1.32405,-0.13414 a 48.98222,48.98222 0 0 1 0.97431,36.57714 c 0.44315,-0.0525 0.88061,-0.12246 1.31807,-0.20413 a 18.37443,18.37443 0 0 0 -0.96833,-36.23887 z"
         transform="translate(-267.06969,-566.6939)"
         fill="#3f3d56"
         id="path3719" />
      <path
         d="m 540.42355,158.85679 c -0.44344,0.0292 -0.88659,0.07 -1.32405,0.13414 a 18.37448,18.37448 0 0 0 -0.96832,36.23887 c 0.43745,0.0817 0.87491,0.15166 1.31806,0.20413 a 48.98583,48.98583 0 0 1 0.97431,-36.57714 z"
         fill="#3f3d56"
         id="path3721"
         transform="translate(-101.55984,-354.029)" />
      <path
         id="path3723"
         style="fill:#3f3d56;fill-opacity:1;stroke-width:1.5059;stroke-miterlimit:4;stroke-dasharray:none;paint-order:fill markers stroke"
         d="m 358.90797,-225.75667 a 50.155998,50.155998 0 0 0 -50.15625,50.15625 50.155998,50.155998 0 0 0 50.15625,50.15625 50.155998,50.155998 0 0 0 50.15625,-50.15625 50.155998,50.155998 0 0 0 -50.15625,-50.15625 z m 0,7.65625 a 42.5,42.5 0 0 1 42.5,42.5 42.5,42.5 0 0 1 -42.5,42.5 42.5,42.5 0 0 1 -42.5,-42.5 42.5,42.5 0 0 1 42.5,-42.5 z"
         transform="translate(124)" />
      <g
         id="g3733"
         transform="translate(-116.24082,-454.11897)">
        <path
           d="M 791.22568,479.73667 A 6.06692,6.06692 0 0 0 787.726,478.611 h -22.94022 a 6.02524,6.02524 0 1 0 0,12.05048 H 787.726 a 5.95878,5.95878 0 0 0 1.21895,-0.1225 6.61944,6.61944 0 0 0 1.16655,-0.36747 6.02282,6.02282 0 0 0 1.11415,-10.43479 z"
           transform="translate(-165.50985,-212.6649)"
           fill="#3f3d56"
           id="path3725" />
        <circle
           cx="600.80328"
           cy="271.97098"
           r="3.0589499"
           fill="#f1f1f1"
           id="circle3727" />
        <circle
           cx="610.74487"
           cy="271.97098"
           r="3.0589499"
           fill="#f1f1f1"
           id="circle3729" />
        <circle
           cx="620.68646"
           cy="271.97098"
           r="3.0589499"
           fill="#6c63ff"
           id="circle3731" />
      </g>
    </g>
    <g
       id="g3753"
       transform="translate(-149.68369)">
      <path
         d="m 797.15156,371.65583 c -0.43746,-0.0641 -0.88061,-0.105 -1.32405,-0.13414 a 48.98222,48.98222 0 0 1 0.97431,36.57714 c 0.44315,-0.0525 0.88061,-0.12246 1.31807,-0.20413 a 18.37443,18.37443 0 0 0 -0.96833,-36.23887 z"
         transform="translate(-267.06969,-566.6939)"
         fill="#3f3d56"
         id="path3737" />
      <path
         d="m 540.42355,158.85679 c -0.44344,0.0292 -0.88659,0.07 -1.32405,0.13414 a 18.37448,18.37448 0 0 0 -0.96832,36.23887 c 0.43745,0.0817 0.87491,0.15166 1.31806,0.20413 a 48.98583,48.98583 0 0 1 0.97431,-36.57714 z"
         fill="#3f3d56"
         id="path3739"
         transform="translate(-101.55984,-354.029)" />
      <path
         id="path3741"
         style="fill:#3f3d56;fill-opacity:1;stroke-width:1.5059;stroke-miterlimit:4;stroke-dasharray:none;paint-order:fill markers stroke"
         d="m 358.90797,-225.75667 a 50.155998,50.155998 0 0 0 -50.15625,50.15625 50.155998,50.155998 0 0 0 50.15625,50.15625 50.155998,50.155998 0 0 0 50.15625,-50.15625 50.155998,50.155998 0 0 0 -50.15625,-50.15625 z m 0,7.65625 a 42.5,42.5 0 0 1 42.5,42.5 42.5,42.5 0 0 1 -42.5,42.5 42.5,42.5 0 0 1 -42.5,-42.5 42.5,42.5 0 0 1 42.5,-42.5 z"
         transform="translate(124)" />
      <g
         id="g3751"
         transform="translate(-116.24082,-454.11897)">
        <path
           d="M 791.22568,479.73667 A 6.06692,6.06692 0 0 0 787.726,478.611 h -22.94022 a 6.02524,6.02524 0 1 0 0,12.05048 H 787.726 a 5.95878,5.95878 0 0 0 1.21895,-0.1225 6.61944,6.61944 0 0 0 1.16655,-0.36747 6.02282,6.02282 0 0 0 1.11415,-10.43479 z"
           transform="translate(-165.50985,-212.6649)"
           fill="#3f3d56"
           id="path3743" />
        <circle
           cx="600.80328"
           cy="271.97098"
           r="3.0589499"
           fill="#f1f1f1"
           id="circle3745" />
        <circle
           cx="610.74487"
           cy="271.97098"
           r="3.0589499"
           fill="#f1f1f1"
           id="circle3747" />
        <circle
           cx="620.68646"
           cy="271.97098"
           r="3.0589499"
           fill="#6c63ff"
           id="circle3749" />
      </g>
    </g>
  </g>
</svg>
